<svg width="112" height="40" viewBox="0 0 112 40" fill="none" xmlns="http://www.w3.org/2000/svg">
<path d="M8 36V7.55556C8 6.61256 8.36122 5.70819 9.00421 5.0414C9.64719 4.3746 10.5193 4 11.4286 4H28.5714C29.4807 4 30.3528 4.3746 30.9958 5.0414C31.6388 5.70819 32 6.61256 32 7.55556V36L26.8571 32.4444L23.4286 36L20 32.4444L16.5714 36L13.1429 32.4444L8 36Z" stroke="#1E1E1E" stroke-width="2" stroke-linecap="round" stroke-linejoin="round"/>
<path d="M22.5714 14.3704H19.3571C18.8457 14.3704 18.3551 14.6201 17.9934 15.0646C17.6318 15.5092 17.4286 16.1121 17.4286 16.7407C17.4286 17.3694 17.6318 17.9723 17.9934 18.4168C18.3551 18.8614 18.8457 19.1111 19.3571 19.1111H20.6429C21.1543 19.1111 21.6449 19.3608 22.0066 19.8054C22.3682 20.2499 22.5714 20.8528 22.5714 21.4815C22.5714 22.1101 22.3682 22.7131 22.0066 23.1576C21.6449 23.6021 21.1543 23.8519 20.6429 23.8519H17.4286M20 23.8519V26.2222M20 12V14.3704" stroke="#1DCD9F" stroke-width="2" stroke-linecap="round" stroke-linejoin="round"/>
<path d="M52.0674 19.1188C52.9097 19.3276 53.5991 19.751 54.1357 20.3891C54.6848 21.0213 54.9593 21.7668 54.9593 22.6256C54.978 23.371 54.7721 24.0688 54.3416 24.7189C53.9111 25.3629 53.3246 25.8728 52.5821 26.2486C51.8396 26.6243 51.0441 26.8032 50.1956 26.7853H44.2808C44.0936 26.7853 44 26.6988 44 26.5259V13.4562C44 13.2833 44.0936 13.1968 44.2808 13.1968H49.7744C50.9225 13.1968 51.8958 13.5188 52.6944 14.1629C53.4931 14.8011 53.8924 15.5883 53.8924 16.5246C53.8924 17.0912 53.7208 17.61 53.3776 18.0812C53.0407 18.5583 52.604 18.9042 52.0674 19.1188ZM51.9083 16.8019C51.9083 16.289 51.7024 15.8596 51.2906 15.5137C50.8726 15.1619 50.3672 14.9859 49.7744 14.9859H46.0683V18.5463H49.7744C50.3859 18.5463 50.8944 18.3853 51.3 18.0633C51.7055 17.7293 51.9083 17.3088 51.9083 16.8019ZM46.0683 24.9962H50.1582C50.9131 24.9962 51.5589 24.7576 52.0955 24.2805C52.6258 23.7974 52.891 23.207 52.891 22.5093C52.891 21.8055 52.6289 21.2449 52.1048 20.8275C51.5932 20.3981 50.9443 20.1834 50.1582 20.1834H46.0683V24.9962Z" fill="#1E1E1E"/>
<path d="M64.3276 17.7233H65.6846C65.8593 17.7233 65.9467 17.8068 65.9467 17.9738V26.5438C65.9467 26.6213 65.9217 26.6839 65.8718 26.7316C65.8281 26.7793 65.7657 26.8032 65.6846 26.8032H64.8891C64.7643 26.8032 64.6738 26.7406 64.6177 26.6153L64.2714 25.1035C63.9594 25.6701 63.4977 26.1263 62.8863 26.4722C62.2624 26.8241 61.5979 27 60.8928 27C59.7822 27 58.8807 26.6541 58.1881 25.9623C57.4956 25.2705 57.1493 24.3521 57.1493 23.207V17.9827C57.1493 17.8158 57.2366 17.7323 57.4113 17.7323H58.759C58.9337 17.7323 59.0211 17.8158 59.0211 17.9827V23.1086C59.0211 23.7766 59.2426 24.3223 59.6855 24.7457C60.1223 25.1632 60.7057 25.3719 61.4357 25.3719C62.1532 25.3719 62.7709 25.1423 63.2887 24.6831C63.8066 24.2239 64.0655 23.6782 64.0655 23.046V17.9738C64.0655 17.8068 64.1529 17.7233 64.3276 17.7233Z" fill="#1E1E1E"/>
<path d="M73.4338 22.0799L76.4754 26.2486C76.594 26.4036 76.6314 26.5348 76.5877 26.6422C76.5503 26.7436 76.438 26.7942 76.2508 26.7942H74.8376C74.6504 26.7942 74.5101 26.7137 74.4165 26.5527L72.292 23.3144L70.1769 26.5259C70.0771 26.7048 69.9336 26.7942 69.7464 26.7942H68.3332C68.146 26.7942 68.0306 26.7436 67.9869 26.6422C67.9495 26.5348 67.99 26.4036 68.1086 26.2486L71.1409 22.0799L68.2864 18.1169C68.199 18.0036 68.1741 17.9112 68.2115 17.8396C68.2489 17.7621 68.3394 17.7233 68.4829 17.7233H69.8774C70.0459 17.7233 70.1925 17.8098 70.3173 17.9827L72.292 20.899L74.2667 17.9827C74.379 17.8098 74.5225 17.7233 74.6972 17.7233H76.1011C76.2446 17.7233 76.3319 17.7621 76.3631 17.8396C76.4006 17.9112 76.3756 18.0036 76.2883 18.1169L73.4338 22.0799Z" fill="#1E1E1E"/>
<path d="M78.2162 20.0224C78.2162 19.0443 78.4065 18.1259 78.7871 17.2671C79.1739 16.3964 79.6918 15.6509 80.3407 15.0307C80.9895 14.4104 81.7726 13.9154 82.6898 13.5457C83.5882 13.1819 84.5491 13 85.5723 13C86.5893 13 87.547 13.1819 88.4455 13.5457C89.3689 13.9214 90.1488 14.4164 90.7852 15.0307C91.4279 15.639 91.9457 16.3845 92.3388 17.2671C92.7256 18.1438 92.919 19.0622 92.919 20.0224C92.919 20.9945 92.7287 21.9099 92.3482 22.7687C91.9676 23.6275 91.4497 24.364 90.7946 24.9783C90.1519 25.5806 89.3689 26.0696 88.4455 26.4454C87.5345 26.8032 86.5768 26.9821 85.5723 26.9821C84.5553 26.9821 83.5944 26.8032 82.6898 26.4454C81.7663 26.0696 80.9833 25.5806 80.3407 24.9783C79.6793 24.3461 79.1614 23.6096 78.7871 22.7687C78.4065 21.9099 78.2162 20.9945 78.2162 20.0224ZM80.2845 20.0224C80.2845 20.9468 80.5154 21.7906 80.9771 22.554C81.4513 23.3233 82.0908 23.9257 82.8956 24.361C83.7068 24.7964 84.599 25.0141 85.5723 25.0141C86.5519 25.0141 87.441 24.7964 88.2396 24.361C89.0445 23.9257 89.684 23.3233 90.1582 22.554C90.6261 21.7847 90.8601 20.9408 90.8601 20.0224C90.8601 19.092 90.6261 18.2422 90.1582 17.4728C89.6902 16.6916 89.0507 16.0833 88.2396 15.6479C87.4347 15.2006 86.5456 14.977 85.5723 14.977C84.6052 14.977 83.713 15.2006 82.8956 15.6479C82.0908 16.0833 81.4544 16.6916 80.9864 17.4728C80.5185 18.2422 80.2845 19.092 80.2845 20.0224Z" fill="#1E1E1E"/>
<path d="M100.266 17.5265C101.37 17.5265 102.269 17.8724 102.961 18.5642C103.654 19.2501 104 20.1685 104 21.3195V26.5438C104 26.7108 103.913 26.7942 103.738 26.7942H102.39C102.216 26.7942 102.128 26.7108 102.128 26.5438V21.4179C102.128 20.7559 101.907 20.2132 101.464 19.7898C101.021 19.3663 100.437 19.1546 99.7136 19.1546C98.9899 19.1546 98.3691 19.3842 97.8512 19.8435C97.3396 20.2967 97.0838 20.8424 97.0838 21.4805V26.5527C97.0838 26.7197 96.9964 26.8032 96.8217 26.8032H95.4647C95.29 26.8032 95.2026 26.7197 95.2026 26.5527V17.9827C95.2026 17.8098 95.29 17.7233 95.4647 17.7233H96.2602C96.3912 17.7233 96.4817 17.7859 96.5316 17.9112L96.8779 19.423C97.1898 18.8564 97.6515 18.4002 98.263 18.0543C98.8932 17.7024 99.5608 17.5265 100.266 17.5265Z" fill="#1E1E1E"/>
</svg>
