<svg width="76" height="64" viewBox="0 0 76 64" fill="none" xmlns="http://www.w3.org/2000/svg">
<path d="M26 40V11.5556C26 10.6126 26.3612 9.70819 27.0042 9.0414C27.6472 8.3746 28.5193 8 29.4286 8H46.5714C47.4807 8 48.3528 8.3746 48.9958 9.0414C49.6388 9.70819 50 10.6126 50 11.5556V40L44.8571 36.4444L41.4286 40L38 36.4444L34.5714 40L31.1429 36.4444L26 40Z" stroke="#1E1E1E" stroke-width="2" stroke-linecap="round" stroke-linejoin="round"/>
<path d="M40.5714 18.3704H37.3572C36.8457 18.3704 36.3551 18.6201 35.9935 19.0646C35.6318 19.5092 35.4286 20.1121 35.4286 20.7407C35.4286 21.3694 35.6318 21.9723 35.9935 22.4168C36.3551 22.8614 36.8457 23.1111 37.3572 23.1111H38.6429C39.1544 23.1111 39.6449 23.3608 40.0066 23.8054C40.3683 24.2499 40.5714 24.8528 40.5714 25.4815C40.5714 26.1101 40.3683 26.7131 40.0066 27.1576C39.6449 27.6021 39.1544 27.8519 38.6429 27.8519H35.4286M38 27.8519V30.2222M38 16V18.3704" stroke="#1DCD9F" stroke-width="2" stroke-linecap="round" stroke-linejoin="round"/>
<path d="M16.0674 52.1188C16.9097 52.3276 17.5991 52.751 18.1357 53.3891C18.6848 54.0213 18.9593 54.7668 18.9593 55.6256C18.978 56.371 18.7721 57.0688 18.3416 57.7189C17.9111 58.3629 17.3246 58.8728 16.5821 59.2486C15.8396 59.6243 15.0441 59.8032 14.1956 59.7853H8.28077C8.09359 59.7853 8 59.6988 8 59.5259V46.4562C8 46.2833 8.09359 46.1968 8.28077 46.1968H13.7744C14.9225 46.1968 15.8958 46.5188 16.6944 47.1629C17.4931 47.8011 17.8924 48.5883 17.8924 49.5246C17.8924 50.0912 17.7208 50.61 17.3776 51.0812C17.0407 51.5583 16.604 51.9042 16.0674 52.1188ZM15.9083 49.8019C15.9083 49.289 15.7024 48.8596 15.2906 48.5137C14.8726 48.1619 14.3672 47.9859 13.7744 47.9859H10.0683V51.5463H13.7744C14.3859 51.5463 14.8944 51.3853 15.3 51.0633C15.7055 50.7293 15.9083 50.3088 15.9083 49.8019ZM10.0683 57.9962H14.1582C14.9131 57.9962 15.5589 57.7576 16.0955 57.2805C16.6258 56.7974 16.891 56.207 16.891 55.5093C16.891 54.8055 16.6289 54.2449 16.1048 53.8275C15.5932 53.3981 14.9443 53.1834 14.1582 53.1834H10.0683V57.9962Z" fill="#1E1E1E"/>
<path d="M28.3276 50.7233H29.6846C29.8593 50.7233 29.9467 50.8068 29.9467 50.9738V59.5438C29.9467 59.6213 29.9217 59.6839 29.8718 59.7316C29.8281 59.7793 29.7657 59.8032 29.6846 59.8032H28.8891C28.7643 59.8032 28.6738 59.7406 28.6177 59.6153L28.2714 58.1035C27.9594 58.6701 27.4977 59.1263 26.8863 59.4722C26.2624 59.8241 25.5979 60 24.8928 60C23.7822 60 22.8807 59.6541 22.1881 58.9623C21.4956 58.2705 21.1493 57.3521 21.1493 56.207V50.9827C21.1493 50.8158 21.2366 50.7323 21.4113 50.7323H22.759C22.9337 50.7323 23.0211 50.8158 23.0211 50.9827V56.1086C23.0211 56.7766 23.2426 57.3223 23.6855 57.7457C24.1223 58.1632 24.7057 58.3719 25.4357 58.3719C26.1532 58.3719 26.7709 58.1423 27.2887 57.6831C27.8066 57.2239 28.0655 56.6782 28.0655 56.046V50.9738C28.0655 50.8068 28.1529 50.7233 28.3276 50.7233Z" fill="#1E1E1E"/>
<path d="M37.4338 55.0799L40.4754 59.2486C40.594 59.4036 40.6314 59.5348 40.5877 59.6422C40.5503 59.7436 40.438 59.7942 40.2508 59.7942H38.8376C38.6504 59.7942 38.5101 59.7137 38.4165 59.5527L36.292 56.3144L34.1769 59.5259C34.0771 59.7048 33.9336 59.7942 33.7464 59.7942H32.3332C32.146 59.7942 32.0306 59.7436 31.9869 59.6422C31.9495 59.5348 31.99 59.4036 32.1086 59.2486L35.1409 55.0799L32.2864 51.1169C32.199 51.0036 32.1741 50.9112 32.2115 50.8396C32.2489 50.7621 32.3394 50.7233 32.4829 50.7233H33.8774C34.0459 50.7233 34.1925 50.8098 34.3173 50.9827L36.292 53.899L38.2667 50.9827C38.379 50.8098 38.5225 50.7233 38.6972 50.7233H40.1011C40.2446 50.7233 40.3319 50.7621 40.3631 50.8396C40.4006 50.9112 40.3756 51.0036 40.2883 51.1169L37.4338 55.0799Z" fill="#1E1E1E"/>
<path d="M42.2162 53.0224C42.2162 52.0443 42.4065 51.1259 42.7871 50.2671C43.1739 49.3964 43.6918 48.6509 44.3407 48.0307C44.9895 47.4104 45.7726 46.9154 46.6898 46.5457C47.5882 46.1819 48.5491 46 49.5723 46C50.5893 46 51.547 46.1819 52.4455 46.5457C53.3689 46.9214 54.1488 47.4164 54.7852 48.0307C55.4279 48.639 55.9457 49.3845 56.3388 50.2671C56.7256 51.1438 56.919 52.0622 56.919 53.0224C56.919 53.9945 56.7287 54.9099 56.3482 55.7687C55.9676 56.6275 55.4497 57.364 54.7946 57.9783C54.1519 58.5806 53.3689 59.0696 52.4455 59.4454C51.5345 59.8032 50.5768 59.9821 49.5723 59.9821C48.5553 59.9821 47.5944 59.8032 46.6898 59.4454C45.7663 59.0696 44.9833 58.5806 44.3407 57.9783C43.6793 57.3461 43.1614 56.6096 42.7871 55.7687C42.4065 54.9099 42.2162 53.9945 42.2162 53.0224ZM44.2845 53.0224C44.2845 53.9468 44.5154 54.7906 44.9771 55.554C45.4513 56.3233 46.0908 56.9257 46.8956 57.361C47.7068 57.7964 48.599 58.0141 49.5723 58.0141C50.5519 58.0141 51.441 57.7964 52.2396 57.361C53.0445 56.9257 53.684 56.3233 54.1582 55.554C54.6261 54.7847 54.8601 53.9408 54.8601 53.0224C54.8601 52.092 54.6261 51.2422 54.1582 50.4728C53.6902 49.6916 53.0507 49.0833 52.2396 48.6479C51.4347 48.2006 50.5456 47.977 49.5723 47.977C48.6052 47.977 47.713 48.2006 46.8956 48.6479C46.0908 49.0833 45.4544 49.6916 44.9864 50.4728C44.5185 51.2422 44.2845 52.092 44.2845 53.0224Z" fill="#1E1E1E"/>
<path d="M64.2658 50.5265C65.3701 50.5265 66.2686 50.8724 66.9612 51.5642C67.6537 52.2501 68 53.1685 68 54.3195V59.5438C68 59.7108 67.9126 59.7942 67.7379 59.7942H66.3903C66.2156 59.7942 66.1282 59.7108 66.1282 59.5438V54.4179C66.1282 53.7559 65.9067 53.2132 65.4637 52.7898C65.0207 52.3663 64.4374 52.1546 63.7136 52.1546C62.9899 52.1546 62.3691 52.3842 61.8512 52.8435C61.3396 53.2967 61.0838 53.8424 61.0838 54.4805V59.5527C61.0838 59.7197 60.9964 59.8032 60.8217 59.8032H59.4647C59.29 59.8032 59.2026 59.7197 59.2026 59.5527V50.9827C59.2026 50.8098 59.29 50.7233 59.4647 50.7233H60.2602C60.3912 50.7233 60.4817 50.7859 60.5316 50.9112L60.8779 52.423C61.1898 51.8564 61.6515 51.4002 62.263 51.0543C62.8932 50.7024 63.5608 50.5265 64.2658 50.5265Z" fill="#1E1E1E"/>
</svg>
