<svg width="76" height="64" xmlns="http://www.w3.org/2000/svg" fill="none">

 <g>
  <title>Layer 1</title>
  <path stroke="#F7F9FA" id="svg_1" stroke-linejoin="round" stroke-linecap="round" stroke-width="2" d="m23.46738,50.86783l0,-33.37287c0,-1.10639 0.44763,-2.1675 1.24448,-2.94983c0.79685,-0.78233 1.87762,-1.22184 3.00449,-1.22184l21.24461,0c1.12687,0 2.20764,0.43951 3.00449,1.22184c0.79685,0.78232 1.24448,1.84344 1.24448,2.94983l0,33.37287l-6.37346,-4.17167l-4.24885,4.17167l-4.24897,-4.17167l-4.24897,4.17167l-4.24885,-4.17167l-6.37346,4.17167z"/>
  <path stroke="#1DCD9F" id="svg_2" stroke-linejoin="round" stroke-linecap="round" stroke-width="2" d="m42.15202,25.01332l-4.82308,0c-0.76753,0 -1.50371,0.30533 -2.04631,0.84885c-0.54275,0.54364 -0.84766,1.28085 -0.84766,2.04949c0,0.76876 0.30491,1.50597 0.84766,2.04949c0.5426,0.54364 1.27877,0.84897 2.04631,0.84897l1.92926,0c0.76753,0 1.50356,0.30533 2.04631,0.84897c0.54275,0.54352 0.84751,1.28073 0.84751,2.04949c0,0.76863 -0.30476,1.50597 -0.84751,2.04949c-0.54275,0.54352 -1.27877,0.84897 -2.04631,0.84897l-4.82323,0m3.85853,0l0,2.89834m0,-17.39051l0,2.89846"/>
 </g>
</svg>